<svg xmlns="http://www.w3.org/2000/svg" width="176" height="176" viewBox="0 0 176 176">
    <defs>
        <style>
            .prefix__cls-2{fill:#fff}
        </style>
    </defs>
    <g id="prefix__ico_talk" transform="translate(-437 173)">
        <circle id="prefix__타원_17" cx="88" cy="88" r="88" fill="#f9b81c" data-name="타원 17" transform="translate(437 -173)"/>
        <g id="prefix__그룹_26" data-name="그룹 26" transform="translate(495.054 -119)">
            <path id="prefix__패스_46" d="M556.989-103.379c.022-.206.04-.413.05-.623a10.443 10.443 0 0 0-9.941-10.921q-.247-.011-.494-.012a10.379 10.379 0 0 0-5.757 1.739 13.682 13.682 0 0 0-10.56-5.789q-.326-.015-.649-.015a13.717 13.717 0 0 0-13.214 10.1 16.115 16.115 0 0 0-4.272-.782c-.255-.012-.511-.018-.764-.018a16.129 16.129 0 0 0-16.094 15.385 16.142 16.142 0 0 0 10.048 15.705 9.107 9.107 0 0 0 2.863 6.495 12.372 12.372 0 0 1 7.655-2.647 12.462 12.462 0 0 1 12.326 10.771c.054 0 .107.008.161.01.178.008.355.013.531.013a11.217 11.217 0 0 0 9.976-6.112 10.782 10.782 0 0 0 7.323 3.342c.171.008.343.012.513.012a10.833 10.833 0 0 0 10.6-8.653 14.028 14.028 0 0 0 12.917-13.337 14.027 14.027 0 0 0-13.217-14.662zm0 0" class="prefix__cls-2" data-name="패스 46" transform="translate(-495.276 119)"/>
        </g>
        <path id="prefix__패스_47" d="M505.246 217.627a5.123 5.123 0 1 1-5.123-5.127 5.125 5.125 0 0 1 5.123 5.127zm0 0" class="prefix__cls-2" data-name="패스 47" transform="translate(0 -266.754)"/>
        <path id="prefix__패스_48" d="M575.555 138.057A8.051 8.051 0 1 1 567.5 130a8.054 8.054 0 0 1 8.051 8.057zm0 0" class="prefix__cls-2" data-name="패스 48" transform="translate(-51.865 -200.367)"/>
    </g>
</svg>
