<svg xmlns="http://www.w3.org/2000/svg" width="176" height="176" viewBox="0 0 176 176">
    <g id="prefix__ico_think" transform="translate(31.519 .003)">
        <circle id="prefix__타원_29" cx="88" cy="88" r="88" fill="#4385f5" data-name="타원 29" transform="translate(-31.519 -.003)"/>
        <g id="prefix__그룹_22" data-name="그룹 22" transform="translate(32.965 52.997)">
            <path id="prefix__패스_41" fill="#fff" d="M71.5 117.168a6.576 6.576 0 0 1-6.6 6.539H54.064c-3.182 0-6.6-2.356-6.6-7.6v-3.182H71.5zm4.773-17.441a12.635 12.635 0 0 0-4.6 7.305H47.346a11.072 11.072 0 0 0-4.3-7.011 26.045 26.045 0 0 1-10.075-21.21 26.647 26.647 0 0 1 26.1-25.807 26.309 26.309 0 0 1 17.205 46.723zm0 0" data-name="패스 41" transform="translate(-32.965 -52.997)"/>
        </g>
    </g>
</svg>
